<svg width="84" height="62" viewBox="0 0 84 62" fill="none" xmlns="http://www.w3.org/2000/svg">
<path d="M15.3474 53.288C12.8034 53.288 10.5114 52.736 8.47141 51.632C6.43141 50.504 4.82341 48.956 3.64741 46.988C2.49541 45.02 1.91941 42.824 1.91941 40.4C1.91941 37.976 2.49541 35.78 3.64741 33.812C4.82341 31.844 6.43141 30.308 8.47141 29.204C10.5114 28.076 12.8034 27.512 15.3474 27.512C17.8674 27.512 20.1474 28.076 22.1874 29.204C24.2274 30.308 25.8234 31.844 26.9754 33.812C28.1274 35.756 28.7034 37.952 28.7034 40.4C28.7034 42.848 28.1274 45.056 26.9754 47.024C25.8234 48.968 24.2274 50.504 22.1874 51.632C20.1474 52.736 17.8674 53.288 15.3474 53.288ZM15.3474 50.084C17.1954 50.084 18.8514 49.664 20.3154 48.824C21.8034 47.984 22.9674 46.832 23.8074 45.368C24.6714 43.88 25.1034 42.224 25.1034 40.4C25.1034 38.576 24.6714 36.932 23.8074 35.468C22.9674 33.98 21.8034 32.816 20.3154 31.976C18.8514 31.136 17.1954 30.716 15.3474 30.716C13.4994 30.716 11.8194 31.136 10.3074 31.976C8.81941 32.816 7.64341 33.98 6.77941 35.468C5.93941 36.932 5.51941 38.576 5.51941 40.4C5.51941 42.224 5.93941 43.88 6.77941 45.368C7.64341 46.832 8.81941 47.984 10.3074 48.824C11.8194 49.664 13.4994 50.084 15.3474 50.084ZM57.5698 53L57.5338 34.64L48.4258 49.94H46.7698L37.6618 34.748V53H34.2058V27.8H37.1578L47.6698 45.512L58.0378 27.8H60.9898L61.0258 53H57.5698Z" fill="white"/>
<path d="M80.6783 19.6298L79.2649 19.1976C79.0688 19.1377 78.8618 19.1941 78.7294 19.3433C78.386 19.7309 78.0092 20.0994 77.6093 20.4387C74.6452 22.9537 70.9246 23.8125 66.85 22.9233C62.7957 22.0386 60.9322 19.692 58.353 16.4441C58.1686 16.2118 57.981 15.9756 57.7891 15.7357C57.7673 15.7083 57.7416 15.6724 57.7144 15.6344C57.6428 15.5343 57.5536 15.4098 57.4281 15.287C57.2576 15.1201 57.0719 14.9646 56.8761 14.825C56.4716 14.5364 56.2018 14.082 56.1361 13.5784L55.7024 10.2566C55.6836 10.1126 55.6098 9.97958 55.4971 9.88658C55.3846 9.79352 55.2423 9.74818 55.1017 9.76061L52.9617 9.94883C52.6692 9.97446 52.4637 10.2384 52.5027 10.5381L52.9187 13.7244C52.9642 14.0732 52.8514 14.428 52.6092 14.6977C52.2393 15.1095 52.0509 15.6178 52.0642 16.1673C52.2326 23.1161 56.8916 28.2594 64.5271 29.9255C67.8224 30.6445 71.3266 30.2145 74.3941 28.7146C75.0115 28.4127 75.5957 28.0749 76.1441 27.7029C76.9085 27.1844 77.6034 26.5995 78.2215 25.9536C79.3264 24.7991 80.1295 23.5062 80.6087 22.111C80.8142 21.5124 80.971 20.8917 81.0744 20.266C81.1203 19.989 80.948 19.7123 80.6783 19.6298ZM53.6332 10.9875L54.7136 10.8925L55.0011 13.0943L54.5648 13.105L53.9117 13.121L53.6332 10.9875ZM75.5314 26.7872C72.5608 28.8018 68.5296 29.6956 64.7032 28.8607C57.613 27.3135 53.2877 22.5775 53.1329 16.1918C53.1246 15.8488 53.2808 15.6009 53.4132 15.4535C53.728 15.1029 53.9232 14.6684 53.9802 14.2102L55.1886 14.1806C55.3811 14.7938 55.7672 15.3339 56.2911 15.7076C56.4387 15.8129 56.5786 15.9299 56.7067 16.0553C56.7595 16.107 56.8063 16.1726 56.8607 16.2485C56.8956 16.2973 56.9317 16.3477 56.9729 16.3992C57.1639 16.6383 57.3508 16.8735 57.5345 17.1049C60.1583 20.409 62.2307 23.0186 66.6737 23.9881C68.9004 24.474 71.0495 24.4727 73.0614 23.9844C74.8865 23.5414 76.5656 22.7073 78.0574 21.5031L78.0933 21.5206L78.2848 21.6142C77.5154 22.8093 76.5337 23.8047 75.3974 24.5753C72.9006 26.2686 69.662 26.879 66.3163 26.149C61.1068 25.0123 57.3962 22.2086 55.8678 18.2544C55.758 17.9702 55.4468 17.8198 55.1728 17.9184C54.8987 18.0169 54.7657 18.3273 54.8755 18.6116C56.548 22.9387 60.5485 25.9938 66.1401 27.2138C68.8685 27.8091 71.5783 27.5923 73.9764 26.5867C74.7048 26.2813 75.3903 25.9101 76.0272 25.478C77.3342 24.5915 78.4353 23.4491 79.2776 22.0992L79.424 22.1707C78.6693 24.0172 77.2854 25.5976 75.5314 26.7872ZM79.7706 21.1544L79.5521 21.0477L78.9213 20.7396C79.0568 20.6079 79.1891 20.4733 79.3175 20.3361L79.9274 20.5226C79.8817 20.7348 79.8294 20.9456 79.7706 21.1544Z" fill="white"/>
</svg>
